<svg width="1200" height="260" viewBox="0 0 1200 260" fill="none" xmlns="http://www.w3.org/2000/svg">
  <defs>
    <linearGradient id="bg" x1="0" y1="0" x2="1200" y2="260" gradientUnits="userSpaceOnUse">
      <stop stop-color="#F7FAFC" />
      <stop offset="1" stop-color="#E6EEF8" />
    </linearGradient>
    <linearGradient id="accent" x1="0" y1="0" x2="1" y2="1">
      <stop stop-color="#0F172A" />
      <stop offset="1" stop-color="#1D4ED8" />
    </linearGradient>
  </defs>
  <rect width="1200" height="260" rx="24" fill="url(#bg)" />
  <rect x="54" y="40" width="1092" height="180" rx="24" fill="#FFFFFF" fill-opacity="0.78" />
  <path d="M780 62H1086" stroke="#CBD5E1" stroke-width="2" />
  <path d="M780 98H1086" stroke="#CBD5E1" stroke-width="2" />
  <path d="M780 134H1086" stroke="#CBD5E1" stroke-width="2" />
  <path d="M780 170H1086" stroke="#CBD5E1" stroke-width="2" />
  <rect x="806" y="78" width="66" height="12" rx="6" fill="#DBEAFE" />
  <rect x="892" y="78" width="94" height="12" rx="6" fill="#E2E8F0" />
  <rect x="806" y="114" width="122" height="12" rx="6" fill="#D1FAE5" />
  <rect x="948" y="114" width="74" height="12" rx="6" fill="#E2E8F0" />
  <rect x="806" y="150" width="82" height="12" rx="6" fill="#FDE68A" />
  <rect x="908" y="150" width="116" height="12" rx="6" fill="#E2E8F0" />
  <rect x="98" y="76" width="112" height="18" rx="9" fill="#DBEAFE" />
  <text x="114" y="89" fill="#1D4ED8" font-family="'SFMono-Regular', Consolas, 'Liberation Mono', Menlo, monospace" font-size="11" font-weight="700">
    SOFTWARE ENGINEER
  </text>
  <text x="98" y="136" fill="#0F172A" font-family="'Segoe UI', Arial, sans-serif" font-size="42" font-weight="700">
    Aryan Miriyala
  </text>
  <text x="98" y="171" fill="#334155" font-family="'SFMono-Regular', Consolas, 'Liberation Mono', Menlo, monospace" font-size="18">
    backend systems • data platforms • applied ai
  </text>
  <path d="M98 188H472" stroke="url(#accent)" stroke-width="3" stroke-linecap="round" />
</svg>
